PathFileType	4	(X/Y/Z)	C:\Users\Basilio\Documents\Thesis Gigler\squatting_fais\c3dfiles\054\SJ_pre4\markers_experimental.trc
DataRate	CameraRate	NumFrames	NumMarkers	Units	OrigDataRate	OrigDataStartFrame	OrigNumFrames
200.000000	200.000000	4	61	mm	200.000000	1186	1582
Frame#	Time	FHD			LBHD			RBHD			C7			T10			CLAV			LSHO			LUUPA			LMUPA			LDUPA			LLEP			LMEP			LRAD			LUL			LRFIN			RSHO			RUPA1			RMUPA			RDUPA			RLEP			RMEP			RRAD			RUL			RUFIN			LASI			RASI			USACR			LSACR			RSACR			LTHI1			LTHI2			LTHI3			LTHI4			LLFC			LMFC			LTIB1			LTIB2			LTIB3			LTIB4			LLMAL			LMMAL			LHEE			LMT1			LMT2			LMT5			RTHI			RTHI2			RTHI3			RTHI4			RLFC			RMFC			RTIB1			RTIB2			RTIB3			RTIB4			RLMAL			RMMAL			RHEE			RMT1			RMT2			RMT5			
		X1	Y1	Z1	X2	Y2	Z2	X3	Y3	Z3	X4	Y4	Z4	X5	Y5	Z5	X6	Y6	Z6	X7	Y7	Z7	X8	Y8	Z8	X9	Y9	Z9	X10	Y10	Z10	X11	Y11	Z11	X12	Y12	Z12	X13	Y13	Z13	X14	Y14	Z14	X15	Y15	Z15	X16	Y16	Z16	X17	Y17	Z17	X18	Y18	Z18	X19	Y19	Z19	X20	Y20	Z20	X21	Y21	Z21	X22	Y22	Z22	X23	Y23	Z23	X24	Y24	Z24	X25	Y25	Z25	X26	Y26	Z26	X27	Y27	Z27	X28	Y28	Z28	X29	Y29	Z29	X30	Y30	Z30	X31	Y31	Z31	X32	Y32	Z32	X33	Y33	Z33	X34	Y34	Z34	X35	Y35	Z35	X36	Y36	Z36	X37	Y37	Z37	X38	Y38	Z38	X39	Y39	Z39	X40	Y40	Z40	X41	Y41	Z41	X42	Y42	Z42	X43	Y43	Z43	X44	Y44	Z44	X45	Y45	Z45	X46	Y46	Z46	X47	Y47	Z47	X48	Y48	Z48	X49	Y49	Z49	X50	Y50	Z50	X51	Y51	Z51	X52	Y52	Z52	X53	Y53	Z53	X54	Y54	Z54	X55	Y55	Z55	X56	Y56	Z56	X57	Y57	Z57	X58	Y58	Z58	X59	Y59	Z59	X60	Y60	Z60	X61	Y61	Z61	

1187	5.93	167.1250152587891	1306.0419921875	-865.052917480469	-3.800149440765382	1260.2978515625	-925.2105102539065	-9.32223415374756	1256.78564453125	-785.2855224609377	-66.44334411621095	1168.123291015625	-839.4313964843752	-323.4301452636719	950.9936523437502	-864.1160888671877	7.866901874542238	1028.414184570313	-858.884216308594	1.783995151519776	1119.585693359375	-1004.42333984375	-146.0967864990235	1103.779663085938	-1178.18212890625	-142.0702667236328	1055.018310546875	-1192.985473632813	-187.93896484375	1074.066162109375	-1226.979248046875	-226.6669616699219	1025.523071289063	-1254.651000976563	-296.0601501464844	1055.262329101563	-1204.00537109375	-330.8796997070313	837.064636230469	-1097.28271484375	-315.2402648925782	783.2646484375002	-1149.367309570313	-283.5329284667969	812.7734375000002	-1055.648315429688	26.43851280212403	1084.951904296875	-695.7243652343751	-125.2516250610352	1035.931274414063	-516.2609863281251	-134.7614288330078	988.3428344726565	-513.8933105468751	-179.0005187988282	1009.782409667969	-477.809051513672	-220.5291748046876	980.007507324219	-464.6558532714845	-276.2550659179688	1028.08056640625	-512.1342163085939	-371.9548339843751	829.4675903320315	-641.9582519531251	-352.9476928710938	772.0914306640627	-590.9680786132814	-316.2613525390626	807.634948730469	-672.6242675781251	-280.4864807128907	718.3009643554689	-990.7751464843752	-279.6325073242188	724.6826171875001	-734.9072875976564	-391.6165466308595	882.8970336914065	-862.6619873046877	-415.7904663085939	861.1114501953127	-890.8972778320315	-416.040008544922	860.1387939453127	-833.2712402343752	-334.9182739257813	630.9823608398439	-1139.270629882813	-258.6692504882813	610.5214233398439	-1173.209228515625	-228.3582916259766	645.6959228515626	-1164.3193359375	-236.7357788085938	556.3372192382814	-1187.481079101563	-131.4969787597657	470.3862609863282	-1223.195678710938	-60.88024139404298	450.8264770507814	-1110.26953125	-118.1239089965821	305.8118591308594	-1203.8359375	-196.3747863769532	286.1465148925782	-1240.849487304688	-157.8986053466797	268.8036193847657	-1228.994262695313	-179.2556915283203	194.9423370361329	-1194.686279296875	-292.6977233886719	87.74649047851564	-1217.244506835938	-232.8276062011719	97.0304870605469	-1138.534423828125	-346.4170837402344	52.13217163085939	-1143.103393554688	-131.7425079345703	54.07849121093751	-1202.508422851563	-142.6409149169922	59.2157440185547	-1251.162475585938	-207.4764556884766	39.13138961791993	-1283.744384765625	-296.2196350097657	584.5933837890626	-570.4146728515626	-233.5151672363282	580.8618164062501	-546.2784423828126	-209.9576416015626	604.4218139648439	-548.6801757812501	-193.0103454589844	508.0756225585939	-529.6884155273439	-154.3797607421875	454.7636718750001	-513.3604125976564	-68.81136322021486	452.9882812500001	-620.4036254882814	-134.1864776611328	347.7864685058594	-501.5491943359376	-237.2932281494141	310.6654663085938	-509.168914794922	-197.3913726806641	286.9187927246094	-502.235809326172	-196.1375427246094	234.6462554931641	-525.9368896484376	-320.8451232910157	91.10769653320314	-546.3129272460939	-251.6149291992188	97.17366027832034	-612.0856323242189	-365.1653137207032	50.94002151489259	-629.0127563476564	-155.948226928711	53.27400588989259	-536.3790893554689	-177.4990692138672	55.80113220214845	-492.4473876953126	-243.1676788330079	36.43301391601563	-470.8483276367189	
1188	5.935	164.6013946533203	1312.337768554688	-864.9112548828127	-5.87647581100464	1266.315063476563	-924.8873291015627	-11.13185596466065	1262.51708984375	-784.9134521484377	-67.77269744873048	1173.549194335938	-839.4241943359377	-323.4617614746094	954.822937011719	-864.0117797851565	6.914301395416262	1034.350708007813	-858.5972900390627	0.6470043659210206	1125.360473632813	-1004.208679199219	-146.9401245117188	1108.405151367188	-1178.155029296875	-142.2062072753907	1059.720581054688	-1192.88134765625	-188.6504058837891	1078.4873046875	-1226.799560546875	-227.0150756835938	1029.563598632813	-1254.609497070313	-296.5003356933594	1058.79052734375	-1203.949584960938	-330.1562194824219	840.580749511719	-1097.14990234375	-314.0497436523438	786.8891601562502	-1149.19384765625	-282.6568298339844	816.4616699218752	-1055.415405273438	24.9291114807129	1091.100219726563	-695.5197143554689	-126.29345703125	1041.011840820313	-516.2034912109376	-135.7111968994141	993.377624511719	-513.6316528320314	-179.7838134765625	1014.3876953125	-477.491912841797	-221.1324005126954	984.2751464843752	-464.5387268066407	-277.0971374511719	1032.022827148438	-512.3387451171876	-371.2580566406251	832.523620605469	-641.8385009765626	-352.1242065429688	775.5061645507815	-590.5878295898439	-315.5599060058594	810.921813964844	-672.4843750000001	-279.7318420410157	721.9531250000001	-990.3673095703127	-278.8167724609376	728.1159057617189	-734.8023071289064	-391.3270568847657	886.510192871094	-862.4798583984377	-415.2636718750001	864.6026611328127	-890.7273559570315	-415.9310302734376	863.7735595703127	-832.9822998046877	-333.4961547851563	632.8176879882814	-1138.941284179688	-258.0340881347657	612.2005615234376	-1173.061401367188	-227.8643646240235	647.0572509765626	-1164.173095703125	-236.0716857910157	557.5227050781251	-1187.234252929688	-131.5810546875	470.8965759277345	-1222.780517578125	-61.06662368774415	451.0435180664064	-1109.783447265625	-118.2762145996094	305.9890136718751	-1203.475830078125	-196.5824432373047	286.3979797363282	-1240.616088867188	-158.1238555908203	269.0525207519532	-1228.665649414063	-179.2887878417969	195.0763854980469	-1194.479125976563	-292.7137145996094	87.75088500976564	-1217.23291015625	-232.8522949218751	97.02454376220706	-1138.550537109375	-346.3933715820313	52.09889602661134	-1143.12060546875	-131.755615234375	54.0925750732422	-1202.53564453125	-142.7061004638672	59.30170059204103	-1251.150268554688	-207.454818725586	39.14845275878907	-1283.720703125	-296.2584228515626	586.4326171875001	-570.2980346679689	-233.7053527832032	582.4667358398439	-545.9461059570314	-209.8569793701172	605.6258544921876	-548.4104003906251	-193.5632476806641	509.1631164550782	-529.7363891601564	-155.371078491211	455.3602294921876	-513.4872436523439	-69.67178344726564	453.5663146972657	-620.3792114257814	-135.0682678222657	348.0671997070313	-501.4772338867189	-237.8993682861329	310.7709045410157	-509.2794799804689	-197.8710479736329	287.1675720214844	-502.3071899414064	-196.5679168701172	234.8565826416016	-525.9289550781251	-320.9740905761719	91.01786041259767	-546.3153076171876	-251.808822631836	97.2510681152344	-612.0573730468751	-365.1941528320313	50.90678787231447	-628.9641113281251	-156.064437866211	53.30415344238283	-536.3522338867189	-177.4989166259766	55.83639907836915	-492.4488525390626	-243.2212982177735	36.43256759643555	-470.8297424316407	
1189	5.94	162.4336395263672	1319.356689453125	-864.6429443359377	-7.515379428863527	1272.197021484375	-924.6862792968752	-13.01626491546631	1268.51904296875	-784.7083740234377	-69.71649169921876	1178.955322265625	-839.1009521484377	-323.5459594726563	958.7706298828127	-863.9487915039065	6.561518192291262	1040.255249023438	-858.4438476562502	-0.6119838356971742	1131.272094726563	-1003.928588867188	-147.8513793945313	1113.0908203125	-1178.041137695313	-142.8838806152344	1064.559692382813	-1192.730346679688	-189.2840881347657	1082.800415039063	-1226.78759765625	-227.2702941894532	1033.502075195313	-1254.338623046875	-297.0469970703126	1062.531005859375	-1204.094482421875	-329.3905029296876	844.1343994140627	-1097.070190429688	-312.6313781738282	790.328063964844	-1148.906372070313	-281.7412719726563	820.203308105469	-1055.123779296875	24.05677032470704	1097.260864257813	-695.2174682617189	-127.2915878295899	1046.29150390625	-515.9761352539064	-136.0823211669922	998.428649902344	-513.6988525390626	-180.6647491455078	1019.186340332031	-477.4192810058595	-221.6977233886719	988.6685180664065	-464.4423828125001	-277.9490661621094	1035.899169921875	-512.2864379882814	-370.7168884277344	835.868347167969	-641.5983886718751	-351.0965576171876	778.804870605469	-590.5394897460939	-314.7824707031251	814.3145141601565	-672.3452148437501	-278.5231323242188	725.7528076171876	-990.0458984375002	-278.0563049316407	732.0958251953126	-734.7034301757814	-390.9392089843751	890.1893310546877	-862.402526855469	-414.8968505859376	868.1992797851565	-890.654724121094	-415.4143371582032	867.3965454101565	-832.9890747070315	-333.2530822753907	635.4430541992189	-1139.152099609375	-257.3923645019532	613.8193969726564	-1172.784912109375	-227.0025939941407	648.5042724609376	-1164.213500976563	-235.8333740234376	558.8923950195314	-1186.96142578125	-131.9167175292969	470.9393615722657	-1222.118286132813	-61.67490005493165	451.1781311035157	-1109.180786132813	-118.8901443481446	306.0861816406251	-1203.108764648438	-196.8277893066407	286.6538085937501	-1240.264892578125	-158.9810333251953	268.8102111816407	-1228.681884765625	-179.485107421875	195.152572631836	-1194.311401367188	-292.6949157714844	87.75491333007814	-1217.220947265625	-232.8983459472657	97.02983856201175	-1138.467041015625	-346.4166870117188	52.10900115966798	-1143.116943359375	-131.7236022949219	54.10447311401369	-1202.453735351563	-142.6951293945313	59.34664535522462	-1251.076171875	-207.4403076171876	39.16925048828126	-1283.708862304688	-296.1503906250001	588.3961791992189	-570.2532958984376	-233.7236633300782	583.5805053710939	-546.0059814453126	-209.8665313720704	606.8599243164064	-548.0632324218751	-194.1329803466797	510.1083068847657	-529.9606323242189	-155.7819519042969	455.7415771484376	-513.6757202148439	-70.47877502441408	454.0045776367189	-620.3865356445314	-135.7757110595703	348.5271301269532	-501.588592529297	-238.2953796386719	310.9184265136719	-509.3423156738282	-198.7253723144532	287.3631896972657	-502.3039550781251	-196.8620300292969	235.0561828613282	-525.9729003906251	-321.1189880371094	90.95218658447267	-546.2104492187501	-251.9239807128907	97.24110412597659	-612.0015869140626	-365.2741699218751	50.85685348510744	-628.9244995117189	-156.1207275390625	53.32846450805665	-536.3972778320314	-177.5216064453125	55.83436203002931	-492.4598999023439	-243.2174072265626	36.38203430175782	-470.8236083984376	
1190	5.945	160.3622589111328	1326.142578125	-864.4267578125002	-9.719118118286135	1278.506103515625	-924.2964477539065	-14.78864097595215	1274.588989257813	-784.4454345703127	-70.95172119140626	1184.480590820313	-839.019226074219	-323.6113586425782	962.789733886719	-863.9376220703127	5.801397323608399	1046.333251953125	-858.2476196289065	-1.700628519058228	1137.14453125	-1003.756652832031	-148.7708129882813	1117.8388671875	-1177.976928710938	-143.6096954345703	1069.138061523438	-1192.51220703125	-189.9656219482422	1087.214599609375	-1226.694580078125	-227.674301147461	1037.623413085938	-1254.311157226563	-297.6410522460938	1066.088989257813	-1204.089111328125	-328.2962951660157	847.6014404296877	-1096.84765625	-310.6207275390626	793.9629516601565	-1149.116943359375	-280.9333801269532	824.0737915039065	-1054.829345703125	22.51952934265137	1103.504516601563	-694.9443969726564	-128.4464569091797	1051.314697265625	-515.7592773437501	-136.9270477294922	1003.508483886719	-513.5809936523439	-181.6053466796875	1023.970520019531	-477.1460266113282	-222.2809600830079	993.1340332031252	-464.4246215820314	-278.9663085937501	1040.000854492188	-512.1744995117189	-370.1950683593751	838.9371337890627	-641.5123901367189	-350.0657958984376	782.3505859375002	-590.4953613281251	-313.9271850585938	818.0928344726565	-672.2435302734376	-277.7973327636719	729.5740356445314	-989.497741699219	-277.7611389160157	735.4030761718751	-734.8451538085939	-390.7043762207032	893.7971801757815	-862.2608032226565	-414.5714111328126	871.8098144531252	-890.5802001953127	-415.2062072753907	870.9700927734377	-832.8277587890627	-332.3355712890626	637.6541748046876	-1139.005737304688	-256.6247558593751	615.4307861328126	-1172.643432617188	-226.4002990722657	649.7583618164064	-1164.316772460938	-236.254867553711	560.3757934570314	-1186.376342773438	-132.3734588623047	471.2740173339845	-1221.6611328125	-62.16581344604494	451.750457763672	-1108.713500976563	-118.9550094604492	306.3194274902344	-1202.70263671875	-197.1802368164063	286.9828186035157	-1239.9248046875	-159.1848297119141	269.1170349121094	-1228.302612304688	-179.8164978027344	195.4071655273438	-1194.119262695313	-292.7437438964844	87.74639892578126	-1217.162963867188	-232.9535522460938	97.06622314453128	-1138.429321289063	-346.4406738281251	52.0638885498047	-1143.143920898438	-131.7356109619141	54.14167785644533	-1202.475463867188	-142.7001342773438	59.37462234497072	-1251.067504882813	-207.4568786621094	39.20791625976563	-1283.693115234375	-296.0603332519532	590.2427368164064	-570.2871093750001	-233.6376953125001	585.0704345703126	-545.7057495117189	-209.5685272216797	608.0462036132814	-547.7570190429689	-194.7535705566407	511.1963500976564	-530.0880126953126	-156.8907470703125	456.2720947265626	-513.8942871093751	-71.30113983154298	454.5538024902345	-620.4728393554689	-136.3191528320313	348.7278747558594	-501.7854003906251	-239.1598815917969	311.1013183593751	-509.3229370117189	-199.2796325683594	287.5585937500001	-502.3627929687501	-197.0581817626954	235.2045135498047	-526.0319213867189	-321.2058105468751	90.90236663818361	-546.1950073242189	-252.145004272461	97.35673522949222	-611.9360351562501	-365.2910156250001	50.80192947387697	-628.9108886718751	-156.1415405273438	53.35839080810548	-536.3822021484376	-177.5643310546875	55.84363555908205	-492.4196777343751	-243.2542419433594	36.36915969848634	-470.834930419922	
